<!-- 游导旅游 - 专属品牌水印 -->
<!-- 可用于图片水印、页面角落装饰等 -->
<svg width="120" height="120" viewBox="0 0 120 120" fill="none" xmlns="http://www.w3.org/2000/svg">
  <!-- 外圈 -->
  <circle cx="60" cy="60" r="55" stroke="url(#watermarkGradient)" stroke-width="2" fill="none" opacity="0.3"/>
  <circle cx="60" cy="60" r="48" stroke="url(#watermarkGradient)" stroke-width="1" fill="none" opacity="0.2"/>
  
  <!-- 地球图标 -->
  <circle cx="60" cy="60" r="30" fill="url(#watermarkGradient)" opacity="0.1"/>
  <path d="M60 30C44.536 30 32 42.536 32 58C32 73.464 44.536 86 60 86C75.464 86 88 73.464 88 58C88 42.536 75.464 30 60 30ZM76 50H68C66.895 50 66 50.895 66 52C66 57.523 66 63.523 66 68C70.5 65 74 60.5 74 56C74 53.5 73 51 72 50C73.5 50 75 50 76 50ZM60 82C48.954 82 40 75.046 40 66H48C48 72.5 52 77 58 78C58 78 60 82 60 82ZM60 82C63.5 82 66.5 80 69 77C69 73.5 69 68 69 62C66 65 63 67 60 68C57 67 54 65 51 62C51 68 51 73.5 51 77C53.5 80 56.5 82 60 82ZM52 58C52 52.5 55.5 48 60 48C64.5 48 68 52.5 68 58C68 63.5 64.5 68 60 68C55.5 68 52 63.5 52 58Z" fill="url(#watermarkGradient)" opacity="0.6"/>
  
  <!-- 指南针指针 -->
  <path d="M60 35L63 55H57L60 35Z" fill="#4F86F7" opacity="0.5"/>
  <path d="M60 81L57 61H63L60 81Z" fill="#10B981" opacity="0.5"/>
  
  <!-- 品牌文字 -->
  <text x="60" y="100" text-anchor="middle" font-size="10" font-family="system-ui, sans-serif" fill="#4F86F7" opacity="0.4">YOUDAO TRAVEL</text>
  
  <defs>
    <linearGradient id="watermarkGradient" x1="0%" y1="0%" x2="100%" y2="100%">
      <stop offset="0%" stop-color="#4F86F7"/>
      <stop offset="50%" stop-color="#10B981"/>
      <stop offset="100%" stop-color="#764ba2"/>
    </linearGradient>
  </defs>
</svg>
