<!-- 品牌色图标 - 单色简洁版本 -->
<!-- 适合作为UI内部图标使用 -->

<!-- 蓝色主色图标组 -->
<svg xmlns="http://www.w3.org/2000/svg" viewBox="0 0 24 24" fill="none" class="icon-brand-primary">
  <circle cx="12" cy="12" r="10" fill="#4F86F7" fill-opacity="0.1"/>
  <path d="M12 6L14 10H18L15 13L16 17L12 14L8 17L9 13L6 10H10L12 6Z" fill="#4F86F7"/>
</svg>

<svg xmlns="http://www.w3.org/2000/svg" viewBox="0 0 24 24" fill="none" class="icon-brand-primary">
  <circle cx="12" cy="12" r="10" fill="#4F86F7" fill-opacity="0.1"/>
  <path d="M12 2C7.58 2 4 5.58 4 10C4 14 12 22 12 22C12 22 20 14 20 10C20 5.58 16.42 2 12 2Z" fill="#4F86F7"/>
  <circle cx="12" cy="9" r="3" fill="white"/>
</svg>

<svg xmlns="http://www.w3.org/2000/svg" viewBox="0 0 24 24" fill="none" class="icon-brand-primary">
  <circle cx="12" cy="12" r="10" fill="#4F86F7" fill-opacity="0.1"/>
  <circle cx="12" cy="12" r="8" stroke="#4F86F7" stroke-width="2"/>
  <path d="M12 8V12L15 14" stroke="#4F86F7" stroke-width="2" stroke-linecap="round"/>
</svg>

<!-- 绿色辅助色图标组 -->
<svg xmlns="http://www.w3.org/2000/svg" viewBox="0 0 24 24" fill="none" class="icon-brand-success">
  <circle cx="12" cy="12" r="10" fill="#10B981" fill-opacity="0.1"/>
  <path d="M8 12L11 15L16 9" stroke="#10B981" stroke-width="2" stroke-linecap="round" stroke-linejoin="round"/>
</svg>

<svg xmlns="http://www.w3.org/2000/svg" viewBox="0 0 24 24" fill="none" class="icon-brand-success">
  <circle cx="12" cy="12" r="10" fill="#10B981" fill-opacity="0.1"/>
  <path d="M12 6V12M12 12V18M12 12H6M12 12H18" stroke="#10B981" stroke-width="2" stroke-linecap="round"/>
</svg>

<svg xmlns="http://www.w3.org/2000/svg" viewBox="0 0 24 24" fill="none" class="icon-brand-success">
  <circle cx="12" cy="12" r="10" fill="#10B981" fill-opacity="0.1"/>
  <path d="M3 12H21M12 3V21" stroke="#10B981" stroke-width="2" stroke-linecap="round"/>
  <circle cx="12" cy="12" r="4" fill="#10B981"/>
</svg>

<!-- 紫色强调色图标组 -->
<svg xmlns="http://www.w3.org/2000/svg" viewBox="0 0 24 24" fill="none" class="icon-brand-accent">
  <circle cx="12" cy="12" r="10" fill="#764ba2" fill-opacity="0.1"/>
  <path d="M12 4L20 20H4L12 4Z" fill="#764ba2"/>
</svg>

<svg xmlns="http://www.w3.org/2000/svg" viewBox="0 0 24 24" fill="none" class="icon-brand-accent">
  <circle cx="12" cy="12" r="10" fill="#764ba2" fill-opacity="0.1"/>
  <path d="M12 4L14 10H20L15 14L17 20L12 16L7 20L9 14L4 10H10L12 4Z" fill="#764ba2"/>
</svg>

<svg xmlns="http://www.w3.org/2000/svg" viewBox="0 0 24 24" fill="none" class="icon-brand-accent">
  <circle cx="12" cy="12" r="10" fill="#764ba2" fill-opacity="0.1"/>
  <rect x="4" y="4" width="16" height="16" rx="2" stroke="#764ba2" stroke-width="2"/>
  <path d="M4 9H20M9 4V20" stroke="#764ba2" stroke-width="2"/>
</svg>
