<!-- 品牌功能图标 -->
<svg xmlns="http://www.w3.org/2000/svg" viewBox="0 0 64 64" fill="none">
  <circle cx="32" cy="32" r="30" fill="#FEF3C7" stroke="#F59E0B" stroke-width="2"/>
  <rect x="16" y="20" width="32" height="28" rx="2" fill="white"/>
  <path d="M16 28H48" stroke="#F59E0B" stroke-width="2"/>
  <circle cx="20" cy="24" r="2" fill="#EF4444"/>
  <circle cx="26" cy="24" r="2" fill="#F59E0B"/>
  <circle cx="32" cy="24" r="2" fill="#10B981"/>
  <path d="M22 36H42" stroke="#E5E7EB" stroke-width="2"/>
  <path d="M22 42H36" stroke="#E5E7EB" stroke-width="2"/>
</svg>

<svg xmlns="http://www.w3.org/2000/svg" viewBox="0 0 64 64" fill="none">
  <circle cx="32" cy="32" r="30" fill="#FCE7F3" stroke="#EC4899" stroke-width="2"/>
  <path d="M20 40V26L32 18L44 26V40L32 48L20 40Z" fill="#EC4899"/>
  <path d="M20 26L32 34L44 26" fill="#BE185D"/>
  <circle cx="32" cy="36" r="4" fill="white"/>
</svg>

<svg xmlns="http://www.w3.org/2000/svg" viewBox="0 0 64 64" fill="none">
  <circle cx="32" cy="32" r="30" fill="#DBEAFE" stroke="#3B82F6" stroke-width="2"/>
  <rect x="18" y="24" width="28" height="22" rx="2" fill="white" stroke="#3B82F6" stroke-width="2"/>
  <path d="M18 30H46" stroke="#3B82F6" stroke-width="2"/>
  <rect x="22" y="34" width="8" height="6" fill="#3B82F6"/>
  <rect x="34" y="34" width="8" height="6" fill="#10B981"/>
</svg>

<svg xmlns="http://www.w3.org/2000/svg" viewBox="0 0 64 64" fill="none">
  <circle cx="32" cy="32" r="30" fill="#D1FAE5" stroke="#10B981" stroke-width="2"/>
  <circle cx="32" cy="28" r="12" fill="none" stroke="#10B981" stroke-width="3"/>
  <path d="M42 38L52 48" stroke="#10B981" stroke-width="3" stroke-linecap="round"/>
  <path d="M26 28H38" stroke="#10B981" stroke-width="3" stroke-linecap="round"/>
  <path d="M32 20V36" stroke="#10B981" stroke-width="3" stroke-linecap="round"/>
</svg>

<svg xmlns="http://www.w3.org/2000/svg" viewBox="0 0 64 64" fill="none">
  <circle cx="32" cy="32" r="30" fill="#EDE9FE" stroke="#8B5CF6" stroke-width="2"/>
  <circle cx="24" cy="32" r="8" fill="#8B5CF6"/>
  <circle cx="40" cy="32" r="8" fill="#8B5CF6"/>
  <path d="M32 24C36 24 40 28 40 32C40 36 36 40 32 40C28 40 24 36 24 32" stroke="#8B5CF6" stroke-width="3" stroke-linecap="round"/>
</svg>

<svg xmlns="http://www.w3.org/2000/svg" viewBox="0 0 64 64" fill="none">
  <circle cx="32" cy="32" r="30" fill="#FEE2E2" stroke="#EF4444" stroke-width="2"/>
  <path d="M32 18C32 18 20 26 20 34C20 42 26 48 32 48C38 48 44 42 44 34C44 26 32 18 32 18Z" fill="#EF4444"/>
  <circle cx="28" cy="32" r="3" fill="white"/>
  <circle cx="36" cy="32" r="3" fill="white"/>
  <path d="M28 40C28 40 32 44 36 40" stroke="white" stroke-width="2" stroke-linecap="round"/>
</svg>

<svg xmlns="http://www.w3.org/2000/svg" viewBox="0 0 64 64" fill="none">
  <circle cx="32" cy="32" r="30" fill="#E0E7FF" stroke="#6366F1" stroke-width="2"/>
  <path d="M20 44L28 32L36 40L44 28" stroke="#6366F1" stroke-width="3" stroke-linecap="round" stroke-linejoin="round"/>
  <circle cx="20" cy="44" r="4" fill="#6366F1"/>
  <circle cx="28" cy="32" r="4" fill="#6366F1"/>
  <circle cx="36" cy="40" r="4" fill="#6366F1"/>
  <circle cx="44" cy="28" r="4" fill="#6366F1"/>
</svg>

<svg xmlns="http://www.w3.org/2000/svg" viewBox="0 0 64 64" fill="none">
  <circle cx="32" cy="32" r="30" fill="#CCFBF1" stroke="#14B8A6" stroke-width="2"/>
  <path d="M32 20V44" stroke="#14B8A6" stroke-width="3" stroke-linecap="round"/>
  <path d="M20 32H44" stroke="#14B8A6" stroke-width="3" stroke-linecap="round"/>
  <circle cx="32" cy="32" r="6" fill="none" stroke="#14B8A6" stroke-width="2"/>
  <circle cx="32" cy="32" r="2" fill="#14B8A6"/>
</svg>
