<!-- 专属导航图标系统 -->
<svg xmlns="http://www.w3.org/2000/svg" viewBox="0 0 64 64" fill="none">
  <!-- 首页图标 -->
  <circle cx="32" cy="32" r="28" fill="#EFF6FF" stroke="#4F86F7" stroke-width="2"/>
  <path d="M32 18L50 30V50H40V38H24V50H14V30L32 18Z" fill="#4F86F7"/>
</svg>

<svg xmlns="http://www.w3.org/2000/svg" viewBox="0 0 64 64" fill="none">
  <!-- 发现图标 -->
  <circle cx="32" cy="32" r="28" fill="#F0FDF4" stroke="#10B981" stroke-width="2"/>
  <circle cx="28" cy="28" r="14" fill="none" stroke="#10B981" stroke-width="3"/>
  <path d="M40 40L52 52" stroke="#10B981" stroke-width="3" stroke-linecap="round"/>
</svg>

<svg xmlns="http://www.w3.org/2000/svg" viewBox="0 0 64 64" fill="none">
  <!-- 行程图标 -->
  <circle cx="32" cy="32" r="28" fill="#FAF5FF" stroke="#764ba2" stroke-width="2"/>
  <rect x="16" y="18" width="32" height="32" rx="4" fill="white" stroke="#764ba2" stroke-width="2"/>
  <path d="M16 28H48" stroke="#764ba2" stroke-width="2"/>
  <rect x="20" y="34" width="8" height="8" rx="1" fill="#4F86F7"/>
  <rect x="36" y="34" width="8" height="8" rx="1" fill="#10B981"/>
</svg>

<svg xmlns="http://www.w3.org/2000/svg" viewBox="0 0 64 64" fill="none">
  <!-- 我的图标 -->
  <circle cx="32" cy="32" r="28" fill="#FEF3C7" stroke="#F59E0B" stroke-width="2"/>
  <circle cx="32" cy="26" r="10" fill="#F59E0B"/>
  <path d="M16 52C16 42 23 36 32 36C41 36 48 42 48 52" fill="#F59E0B"/>
</svg>

<svg xmlns="http://www.w3.org/2000/svg" viewBox="0 0 64 64" fill="none">
  <!-- 消息图标 -->
  <circle cx="32" cy="32" r="28" fill="#FEE2E2" stroke="#EF4444" stroke-width="2"/>
  <path d="M18 22H46C47.1 22 48 22.9 48 24V40C48 41.1 47.1 42 46 42H34L26 50V42H18C16.9 42 16 41.1 16 40V24C16 22.9 16.9 22 18 22Z" fill="#EF4444"/>
  <circle cx="26" cy="32" r="3" fill="white"/>
  <circle cx="38" cy="32" r="3" fill="white"/>
  <circle cx="32" cy="32" r="3" fill="white"/>
</svg>
